<svg xmlns="http://www.w3.org/2000/svg" version="1.1" xmlns:xlink="http://www.w3.org/1999/xlink" xmlns:svgjs="http://svgjs.com/svgjs" width="1440" height="560" preserveAspectRatio="none" viewBox="0 0 1440 560"><g mask="url(&quot;#SvgjsMask6150&quot;)" fill="none"><rect width="1440" height="560" x="0" y="0" fill="url(#SvgjsLinearGradient6151)"></rect><path d="M0 0L490.91 0L0 133.7z" fill="rgba(255, 255, 255, .1)"></path><path d="M0 133.7L490.91 0L690.3 0L0 337.28z" fill="rgba(255, 255, 255, .075)"></path><path d="M0 337.28L690.3 0L1005.73 0L0 360.21z" fill="rgba(255, 255, 255, .05)"></path><path d="M0 360.21L1005.73 0L1254.64 0L0 494.71z" fill="rgba(255, 255, 255, .025)"></path><path d="M1440 560L1341.41 560L1440 315.7z" fill="rgba(0, 0, 0, .1)"></path><path d="M1440 315.7L1341.41 560L1227.67 560L1440 214.44z" fill="rgba(0, 0, 0, .075)"></path><path d="M1440 214.44L1227.67 560L510.7600000000001 560L1440 209.57z" fill="rgba(0, 0, 0, .05)"></path><path d="M1440 209.57L510.76 560L407.19 560L1440 97.5z" fill="rgba(0, 0, 0, .025)"></path></g><defs><mask id="SvgjsMask6150"><rect width="1440" height="560" fill="#ffffff"></rect></mask><linearGradient x1="50%" y1="100%" x2="50%" y2="0%" gradientUnits="userSpaceOnUse" id="SvgjsLinearGradient6151"><stop stop-color="rgba(0, 118, 255, 1)" offset="0.05"></stop><stop stop-color="rgba(0, 46, 255, 1)" offset="1"></stop></linearGradient></defs></svg>