<svg xmlns="http://www.w3.org/2000/svg" width="299.995" height="299.997" viewBox="0 0 299.995 299.997"><g transform="translate(-462.001 110)"><path d="M150,0A150,150,0,1,0,300,150,150,150,0,0,0,150,0Zm0,52.686,88.763,55.35H61.236Zm89.869,143.737h-.009A16.07,16.07,0,0,1,223.787,212.5H76.211a16.07,16.07,0,0,1-16.072-16.072V111.558a15.987,15.987,0,0,1,.252-2.749L145.2,161.692c.1.065.215.109.322.169s.226.122.34.179a8.9,8.9,0,0,0,1.847.721c.065.018.13.026.2.041a9.149,9.149,0,0,0,2.093.265h.015a8.985,8.985,0,0,0,2.093-.265c.065-.016.13-.023.2-.041a8.991,8.991,0,0,0,1.847-.721c.114-.057.228-.117.34-.179s.218-.1.322-.169l84.808-52.883a15.968,15.968,0,0,1,.252,2.749v84.865Z" transform="translate(462 -110)" fill="#fff"/></g></svg>