<svg xmlns="http://www.w3.org/2000/svg" width="24" height="24" viewBox="0 0 24 24"><path d="M12,0A12,12,0,1,0,24,12,12,12,0,0,0,12,0Zm3.163,21.783H15.07a.483.483,0,0,1-.522-.512V19.865c.006-.467.01-.94.01-1.416a3.693,3.693,0,0,0-.151-1.028,1.832,1.832,0,0,0-.542-.875,8.014,8.014,0,0,0,2.038-.471,4.051,4.051,0,0,0,1.466-.964,3.832,3.832,0,0,0,.885-1.506,6.77,6.77,0,0,0,.3-2.13A4.138,4.138,0,0,0,18.294,10a3.892,3.892,0,0,0-.8-1.284,2.81,2.81,0,0,0,.162-.582,3.71,3.71,0,0,0,.05-.6,3.353,3.353,0,0,0-.09-.773,5.309,5.309,0,0,0-.221-.763.293.293,0,0,0-.111-.02h-.11a2.234,2.234,0,0,0-.674.111,5.34,5.34,0,0,0-.7.26,6.5,6.5,0,0,0-.661.343c-.215.127-.4.249-.573.362a9.578,9.578,0,0,0-5.143,0q-.281-.188-.572-.362a6.022,6.022,0,0,0-.672-.342,4.516,4.516,0,0,0-.705-.261,2.2,2.2,0,0,0-.662-.111H6.7a.29.29,0,0,0-.11.02,5.844,5.844,0,0,0-.23.763,3.785,3.785,0,0,0-.081.773,3.6,3.6,0,0,0,.051.6,2.869,2.869,0,0,0,.16.582A3.888,3.888,0,0,0,5.7,10a4.142,4.142,0,0,0-.263,1.476,6.871,6.871,0,0,0,.292,2.12,4.089,4.089,0,0,0,.884,1.516,4.176,4.176,0,0,0,1.466.964,7.726,7.726,0,0,0,2.033.476,1.828,1.828,0,0,0-.452.633,2.99,2.99,0,0,0-.2.744,2.754,2.754,0,0,1-1.175.27,1.788,1.788,0,0,1-1.065-.3,2.9,2.9,0,0,1-.752-.824,3.1,3.1,0,0,0-.292-.382,2.693,2.693,0,0,0-.372-.343,1.841,1.841,0,0,0-.432-.24,1.2,1.2,0,0,0-.481-.1c-.04,0-.08,0-.12.01a.649.649,0,0,0-.162.02.408.408,0,0,0-.13.06.116.116,0,0,0-.06.1.33.33,0,0,0,.14.242c.093.074.17.131.232.171l.03.021a4.3,4.3,0,0,1,.382.333,1.958,1.958,0,0,1,.3.33,2.114,2.114,0,0,1,.231.381q.109.2.231.463a2.388,2.388,0,0,0,.954,1.145,2.962,2.962,0,0,0,1.476.351,4.555,4.555,0,0,0,.522-.03c.172-.028.343-.057.515-.091v1.743a.5.5,0,0,1-.533.521H8.839a10.286,10.286,0,1,1,6.324,0v0Z" fill="#fff"/></svg>