<svg xmlns="http://www.w3.org/2000/svg" width="19.2" height="19.2" viewBox="0 0 19.2 19.2"><path d="M10,.4A9.6,9.6,0,1,0,19.6,10,9.6,9.6,0,0,0,10,.4ZM7.65,13.979H5.706V7.723H7.65ZM6.666,6.955a.973.973,0,1,1,.025-1.944.974.974,0,1,1-.025,1.944Zm8.084,7.024H12.806V10.512c0-.807-.282-1.355-.985-1.355a1.068,1.068,0,0,0-1,.728,1.376,1.376,0,0,0-.065.486v3.607H8.814V9.718c0-.781-.025-1.434-.051-2h1.689l.089.869h.039a2.25,2.25,0,0,1,1.932-1.01c1.279,0,2.238.857,2.238,2.7v3.7Z" transform="translate(-0.4 -0.4)" fill="#fff"/></svg>