<svg xmlns="http://www.w3.org/2000/svg"  viewBox="0 0 100 100" width="200px" height="200px"><path d="M26.5,93C17.953,93,11,86.047,11,77.5v-51C11,17.953,17.953,11,26.5,11h51C86.047,11,93,17.953,93,26.5v51 C93,86.047,86.047,93,77.5,93H26.5z" opacity=".35"/><path fill="#f2f2f2" d="M24.5,91C15.953,91,9,84.047,9,75.5v-51C9,15.953,15.953,9,24.5,9h51C84.047,9,91,15.953,91,24.5v51 C91,84.047,84.047,91,75.5,91H24.5z"/><path fill="#2785bd" d="M75.5,15.5h-51c-4.971,0-9,4.029-9,9v51c0,4.971,4.029,9,9,9h51c4.971,0,9-4.029,9-9v-51 C84.5,19.529,80.471,15.5,75.5,15.5z"/><path fill="#40396e" d="M75.5,86h-51C18.71,86,14,81.29,14,75.5v-51C14,18.71,18.71,14,24.5,14h51 C81.29,14,86,18.71,86,24.5v51C86,81.29,81.29,86,75.5,86z M24.5,17c-4.136,0-7.5,3.364-7.5,7.5v51c0,4.136,3.364,7.5,7.5,7.5h51 c4.136,0,7.5-3.364,7.5-7.5v-51c0-4.136-3.364-7.5-7.5-7.5H24.5z"/><g><path fill="#f2f2f2" d="M75.84,36.196L61.765,50l14.073,13.802C75.933,63.454,76,63.096,76,62.719V37.281 C76,36.904,75.933,36.546,75.84,36.196z M55.81,49.744l16.911-16.587C72.365,33.066,71.999,33,71.615,33H28.385 c-0.385,0-0.75,0.066-1.107,0.157L44.19,49.744C47.395,52.884,52.605,52.884,55.81,49.744z M50,56.42 c-3.113,0-6.21-1.149-8.624-3.402L27.279,66.843C27.635,66.934,28.001,67,28.385,67h43.229c0.385,0,0.75-0.066,1.107-0.157 L58.624,53.018C56.21,55.271,53.113,56.42,50,56.42z M24.16,36.196c-0.093,0.35-0.16,0.708-0.16,1.085v25.438 c0,0.377,0.067,0.736,0.16,1.085L38.235,50L24.16,36.196z"/></g></svg>