<svg xmlns="http://www.w3.org/2000/svg" version="1.1" xmlns:xlink="http://www.w3.org/1999/xlink" xmlns:svgjs="http://svgjs.com/svgjs" width="1440" height="680" preserveAspectRatio="none" viewBox="0 0 1440 580"><g mask="url(&quot;#SvgjsMask1143&quot;)" fill="none"><rect width="1440" height="580" x="0" y="0" fill="rgba(0, 140, 255, 1)"></rect><path d="M 0,17 C 48,120.8 144,484 240,536 C 336,588 384,298.8 480,277 C 576,255.2 624,451.4 720,427 C 816,402.6 864,176.6 960,155 C 1056,133.4 1104,345.2 1200,319 C 1296,292.8 1392,83 1440,24L1440 580L0 580z" fill="rgba(0, 115, 201, 1)"></path><path d="M 0,241 C 57.6,304.6 172.8,554 288,559 C 403.2,564 460.8,295 576,266 C 691.2,237 748.8,426 864,414 C 979.2,402 1036.8,228 1152,206 C 1267.2,184 1382.4,284.4 1440,304L1440 580L0 580z" fill="rgba(0, 80, 161, 1)"></path></g><defs><mask id="SvgjsMask1143"><rect width="1140" height="980" fill="#ffffff"></rect></mask></defs></svg>