<?xml version="1.0" standalone="no"?>
<svg xmlns:xlink="http://www.w3.org/1999/xlink" id="wave" style="transform:rotate(0deg); transition: 0.3s" viewBox="0 0 1440 330" version="1.1" xmlns="http://www.w3.org/2000/svg"><defs><linearGradient id="sw-gradient-0" x1="0" x2="0" y1="1" y2="0"><stop stop-color="rgba(62, 169.425, 243, 1)" offset="0%"/><stop stop-color="rgba(11, 97.958, 255, 1)" offset="100%"/></linearGradient></defs><path style="transform:translate(0, 0px); opacity:1" fill="url(#sw-gradient-0)" d="M0,99L24,88C48,77,96,55,144,38.5C192,22,240,11,288,33C336,55,384,110,432,126.5C480,143,528,121,576,115.5C624,110,672,121,720,132C768,143,816,154,864,148.5C912,143,960,121,1008,115.5C1056,110,1104,121,1152,148.5C1200,176,1248,220,1296,198C1344,176,1392,88,1440,49.5C1488,11,1536,22,1584,33C1632,44,1680,55,1728,49.5C1776,44,1824,22,1872,27.5C1920,33,1968,66,2016,71.5C2064,77,2112,55,2160,44C2208,33,2256,33,2304,38.5C2352,44,2400,55,2448,55C2496,55,2544,44,2592,44C2640,44,2688,55,2736,55C2784,55,2832,44,2880,66C2928,88,2976,143,3024,154C3072,165,3120,132,3168,115.5C3216,99,3264,99,3312,104.5C3360,110,3408,121,3432,126.5L3456,132L3456,330L3432,330C3408,330,3360,330,3312,330C3264,330,3216,330,3168,330C3120,330,3072,330,3024,330C2976,330,2928,330,2880,330C2832,330,2784,330,2736,330C2688,330,2640,330,2592,330C2544,330,2496,330,2448,330C2400,330,2352,330,2304,330C2256,330,2208,330,2160,330C2112,330,2064,330,2016,330C1968,330,1920,330,1872,330C1824,330,1776,330,1728,330C1680,330,1632,330,1584,330C1536,330,1488,330,1440,330C1392,330,1344,330,1296,330C1248,330,1200,330,1152,330C1104,330,1056,330,1008,330C960,330,912,330,864,330C816,330,768,330,720,330C672,330,624,330,576,330C528,330,480,330,432,330C384,330,336,330,288,330C240,330,192,330,144,330C96,330,48,330,24,330L0,330Z"/><defs><linearGradient id="sw-gradient-1" x1="0" x2="0" y1="1" y2="0"><stop stop-color="rgba(62, 114.243, 243, 1)" offset="0%"/><stop stop-color="rgba(11, 164.081, 255, 1)" offset="100%"/></linearGradient></defs><path style="transform:translate(0, 50px); opacity:0.9" fill="url(#sw-gradient-1)" d="M0,165L24,137.5C48,110,96,55,144,44C192,33,240,66,288,93.5C336,121,384,143,432,154C480,165,528,165,576,154C624,143,672,121,720,132C768,143,816,187,864,187C912,187,960,143,1008,121C1056,99,1104,99,1152,126.5C1200,154,1248,209,1296,203.5C1344,198,1392,132,1440,99C1488,66,1536,66,1584,66C1632,66,1680,66,1728,66C1776,66,1824,66,1872,60.5C1920,55,1968,44,2016,71.5C2064,99,2112,165,2160,181.5C2208,198,2256,165,2304,154C2352,143,2400,154,2448,165C2496,176,2544,187,2592,209C2640,231,2688,264,2736,269.5C2784,275,2832,253,2880,236.5C2928,220,2976,209,3024,187C3072,165,3120,132,3168,137.5C3216,143,3264,187,3312,209C3360,231,3408,231,3432,231L3456,231L3456,330L3432,330C3408,330,3360,330,3312,330C3264,330,3216,330,3168,330C3120,330,3072,330,3024,330C2976,330,2928,330,2880,330C2832,330,2784,330,2736,330C2688,330,2640,330,2592,330C2544,330,2496,330,2448,330C2400,330,2352,330,2304,330C2256,330,2208,330,2160,330C2112,330,2064,330,2016,330C1968,330,1920,330,1872,330C1824,330,1776,330,1728,330C1680,330,1632,330,1584,330C1536,330,1488,330,1440,330C1392,330,1344,330,1296,330C1248,330,1200,330,1152,330C1104,330,1056,330,1008,330C960,330,912,330,864,330C816,330,768,330,720,330C672,330,624,330,576,330C528,330,480,330,432,330C384,330,336,330,288,330C240,330,192,330,144,330C96,330,48,330,24,330L0,330Z"/><defs><linearGradient id="sw-gradient-2" x1="0" x2="0" y1="1" y2="0"><stop stop-color="rgba(62, 212.344, 243, 1)" offset="0%"/><stop stop-color="rgba(11, 147.55, 255, 1)" offset="100%"/></linearGradient></defs><path style="transform:translate(0, 100px); opacity:0.8" fill="url(#sw-gradient-2)" d="M0,231L24,236.5C48,242,96,253,144,225.5C192,198,240,132,288,99C336,66,384,66,432,66C480,66,528,66,576,82.5C624,99,672,132,720,148.5C768,165,816,165,864,154C912,143,960,121,1008,137.5C1056,154,1104,209,1152,209C1200,209,1248,154,1296,115.5C1344,77,1392,55,1440,77C1488,99,1536,165,1584,187C1632,209,1680,187,1728,148.5C1776,110,1824,55,1872,27.5C1920,0,1968,0,2016,16.5C2064,33,2112,66,2160,93.5C2208,121,2256,143,2304,137.5C2352,132,2400,99,2448,99C2496,99,2544,132,2592,148.5C2640,165,2688,165,2736,143C2784,121,2832,77,2880,71.5C2928,66,2976,99,3024,104.5C3072,110,3120,88,3168,66C3216,44,3264,22,3312,22C3360,22,3408,44,3432,55L3456,66L3456,330L3432,330C3408,330,3360,330,3312,330C3264,330,3216,330,3168,330C3120,330,3072,330,3024,330C2976,330,2928,330,2880,330C2832,330,2784,330,2736,330C2688,330,2640,330,2592,330C2544,330,2496,330,2448,330C2400,330,2352,330,2304,330C2256,330,2208,330,2160,330C2112,330,2064,330,2016,330C1968,330,1920,330,1872,330C1824,330,1776,330,1728,330C1680,330,1632,330,1584,330C1536,330,1488,330,1440,330C1392,330,1344,330,1296,330C1248,330,1200,330,1152,330C1104,330,1056,330,1008,330C960,330,912,330,864,330C816,330,768,330,720,330C672,330,624,330,576,330C528,330,480,330,432,330C384,330,336,330,288,330C240,330,192,330,144,330C96,330,48,330,24,330L0,330Z"/><defs><linearGradient id="sw-gradient-3" x1="0" x2="0" y1="1" y2="0"><stop stop-color="rgba(62, 151.031, 243, 1)" offset="0%"/><stop stop-color="rgba(11, 221.939, 255, 1)" offset="100%"/></linearGradient></defs><path style="transform:translate(0, 150px); opacity:0.7" fill="url(#sw-gradient-3)" d="M0,198L24,165C48,132,96,66,144,55C192,44,240,88,288,137.5C336,187,384,242,432,231C480,220,528,143,576,110C624,77,672,88,720,110C768,132,816,165,864,148.5C912,132,960,66,1008,33C1056,0,1104,0,1152,33C1200,66,1248,132,1296,176C1344,220,1392,242,1440,225.5C1488,209,1536,154,1584,137.5C1632,121,1680,143,1728,148.5C1776,154,1824,143,1872,143C1920,143,1968,154,2016,143C2064,132,2112,99,2160,77C2208,55,2256,44,2304,71.5C2352,99,2400,165,2448,159.5C2496,154,2544,77,2592,82.5C2640,88,2688,176,2736,192.5C2784,209,2832,154,2880,159.5C2928,165,2976,231,3024,242C3072,253,3120,209,3168,209C3216,209,3264,253,3312,264C3360,275,3408,253,3432,242L3456,231L3456,330L3432,330C3408,330,3360,330,3312,330C3264,330,3216,330,3168,330C3120,330,3072,330,3024,330C2976,330,2928,330,2880,330C2832,330,2784,330,2736,330C2688,330,2640,330,2592,330C2544,330,2496,330,2448,330C2400,330,2352,330,2304,330C2256,330,2208,330,2160,330C2112,330,2064,330,2016,330C1968,330,1920,330,1872,330C1824,330,1776,330,1728,330C1680,330,1632,330,1584,330C1536,330,1488,330,1440,330C1392,330,1344,330,1296,330C1248,330,1200,330,1152,330C1104,330,1056,330,1008,330C960,330,912,330,864,330C816,330,768,330,720,330C672,330,624,330,576,330C528,330,480,330,432,330C384,330,336,330,288,330C240,330,192,330,144,330C96,330,48,330,24,330L0,330Z"/></svg>