<?xml version="1.0" standalone="no"?><svg xmlns="http://www.w3.org/2000/svg" viewBox="0 0 1440 320"><path fill="#0099ff" fill-opacity="1" d="M0,32L21.8,74.7C43.6,117,87,203,131,218.7C174.5,235,218,181,262,138.7C305.5,96,349,64,393,85.3C436.4,107,480,181,524,208C567.3,235,611,213,655,213.3C698.2,213,742,235,785,229.3C829.1,224,873,192,916,165.3C960,139,1004,117,1047,101.3C1090.9,85,1135,75,1178,106.7C1221.8,139,1265,213,1309,208C1352.7,203,1396,117,1418,74.7L1440,32L1440,320L1418.2,320C1396.4,320,1353,320,1309,320C1265.5,320,1222,320,1178,320C1134.5,320,1091,320,1047,320C1003.6,320,960,320,916,320C872.7,320,829,320,785,320C741.8,320,698,320,655,320C610.9,320,567,320,524,320C480,320,436,320,393,320C349.1,320,305,320,262,320C218.2,320,175,320,131,320C87.3,320,44,320,22,320L0,320Z"></path></svg>